<svg width="727" height="208" viewBox="0 0 727 208" fill="none" xmlns="http://www.w3.org/2000/svg">
<rect width="727" height="208" fill="#F4F1EC"/>
<path d="M102 156.64H91.4V163.6H100.8V168.04H91.4V175.44H102V180H85.76V152.08H102V156.64ZM184.209 180.28C182.289 180.28 180.569 179.933 179.049 179.24C177.529 178.547 176.289 177.587 175.329 176.36C174.369 175.133 173.756 173.693 173.489 172.04L179.209 170.88C179.502 172.347 180.076 173.493 180.929 174.32C181.782 175.147 182.822 175.56 184.049 175.56C185.436 175.56 186.502 175.267 187.249 174.68C187.996 174.067 188.369 173.253 188.369 172.24C188.369 171.413 188.102 170.747 187.569 170.24C187.062 169.733 186.369 169.307 185.489 168.96C184.636 168.613 183.702 168.307 182.689 168.04C181.676 167.747 180.649 167.427 179.609 167.08C178.596 166.707 177.662 166.227 176.809 165.64C175.956 165.053 175.262 164.307 174.729 163.4C174.222 162.493 173.969 161.333 173.969 159.92C173.969 158.213 174.382 156.76 175.209 155.56C176.036 154.333 177.182 153.4 178.649 152.76C180.142 152.12 181.862 151.8 183.809 151.8C185.516 151.8 187.062 152.107 188.449 152.72C189.862 153.333 191.022 154.187 191.929 155.28C192.836 156.347 193.382 157.573 193.569 158.96L187.929 160.4C187.689 159.147 187.182 158.173 186.409 157.48C185.662 156.787 184.729 156.44 183.609 156.44C182.889 156.44 182.222 156.56 181.609 156.8C181.022 157.04 180.556 157.4 180.209 157.88C179.862 158.36 179.689 158.96 179.689 159.68C179.689 160.48 179.956 161.133 180.489 161.64C181.022 162.12 181.716 162.533 182.569 162.88C183.422 163.2 184.356 163.507 185.369 163.8C186.409 164.067 187.436 164.387 188.449 164.76C189.489 165.133 190.436 165.613 191.289 166.2C192.169 166.787 192.862 167.547 193.369 168.48C193.902 169.387 194.169 170.533 194.169 171.92C194.169 173.387 193.756 174.76 192.929 176.04C192.129 177.32 190.982 178.347 189.489 179.12C187.996 179.893 186.236 180.28 184.209 180.28ZM264.735 152.08H285.255V156.64H277.815V180H272.175V156.64H264.735V152.08ZM368.294 152.08L378.374 180H372.414L363.814 155.04H366.214L357.614 180H351.694L361.774 152.08H368.294ZM357.414 170.2H372.214L373.654 174.68H355.974L357.414 170.2ZM444.76 152.08H465.28V156.64H457.84V180H452.2V156.64H444.76V152.08ZM552.766 156.64H542.166V163.6H551.566V168.04H542.166V175.44H552.766V180H536.526V152.08H552.766V156.64ZM634.975 180.28C633.055 180.28 631.335 179.933 629.815 179.24C628.295 178.547 627.055 177.587 626.095 176.36C625.135 175.133 624.521 173.693 624.255 172.04L629.975 170.88C630.268 172.347 630.841 173.493 631.695 174.32C632.548 175.147 633.588 175.56 634.815 175.56C636.201 175.56 637.268 175.267 638.015 174.68C638.761 174.067 639.135 173.253 639.135 172.24C639.135 171.413 638.868 170.747 638.335 170.24C637.828 169.733 637.135 169.307 636.255 168.96C635.401 168.613 634.468 168.307 633.455 168.04C632.441 167.747 631.415 167.427 630.375 167.08C629.361 166.707 628.428 166.227 627.575 165.64C626.721 165.053 626.028 164.307 625.495 163.4C624.988 162.493 624.735 161.333 624.735 159.92C624.735 158.213 625.148 156.76 625.975 155.56C626.801 154.333 627.948 153.4 629.415 152.76C630.908 152.12 632.628 151.8 634.575 151.8C636.281 151.8 637.828 152.107 639.215 152.72C640.628 153.333 641.788 154.187 642.695 155.28C643.601 156.347 644.148 157.573 644.335 158.96L638.695 160.4C638.455 159.147 637.948 158.173 637.175 157.48C636.428 156.787 635.495 156.44 634.375 156.44C633.655 156.44 632.988 156.56 632.375 156.8C631.788 157.04 631.321 157.4 630.975 157.88C630.628 158.36 630.455 158.96 630.455 159.68C630.455 160.48 630.721 161.133 631.255 161.64C631.788 162.12 632.481 162.533 633.335 162.88C634.188 163.2 635.121 163.507 636.135 163.8C637.175 164.067 638.201 164.387 639.215 164.76C640.255 165.133 641.201 165.613 642.055 166.2C642.935 166.787 643.628 167.547 644.135 168.48C644.668 169.387 644.935 170.533 644.935 171.92C644.935 173.387 644.521 174.76 643.695 176.04C642.895 177.32 641.748 178.347 640.255 179.12C638.761 179.893 637.001 180.28 634.975 180.28Z" fill="#1E4D3A"/>
<path d="M92.8 69.28C92 66.96 90.92 64.92 89.56 63.16C88.28 61.32 86.72 59.76 84.88 58.48C83.12 57.2 81.12 56.24 78.88 55.6C76.72 54.88 74.32 54.52 71.68 54.52C66.8 54.52 62.44 55.68 58.6 58C54.84 60.32 51.88 63.52 49.72 67.6C47.64 71.68 46.6 76.48 46.6 82C46.6 87.68 47.64 92.6 49.72 96.76C51.88 100.92 54.92 104.16 58.84 106.48C62.84 108.8 67.52 109.96 72.88 109.96C76 109.96 78.88 109.36 81.52 108.16C84.16 106.96 86.48 105.4 88.48 103.48C90.56 101.56 92.2 99.4 93.4 97C94.68 94.6 95.56 92.24 96.04 89.92H68.68V76.6H113.08V124H98.2V102.76L99.4 102.16C99.24 103.52 98.76 105.16 97.96 107.08C97.16 109 96 111 94.48 113.08C92.96 115.08 91.04 117 88.72 118.84C86.48 120.6 83.84 122.04 80.8 123.16C77.76 124.28 74.32 124.84 70.48 124.84C64.88 124.84 59.6 123.8 54.64 121.72C49.68 119.64 45.28 116.72 41.44 112.96C37.68 109.12 34.68 104.6 32.44 99.4C30.28 94.12 29.2 88.32 29.2 82C29.2 75.68 30.28 69.92 32.44 64.72C34.68 59.52 37.72 55.04 41.56 51.28C45.48 47.44 50 44.52 55.12 42.52C60.32 40.44 65.92 39.4 71.92 39.4C80.88 39.4 88.68 41.44 95.32 45.52C101.96 49.6 106.68 55.52 109.48 63.28L92.8 69.28ZM126.344 124V40.24H157.904C164.464 40.24 169.984 41.32 174.464 43.48C178.944 45.64 182.304 48.64 184.544 52.48C186.864 56.24 188.024 60.56 188.024 65.44C188.024 70.8 186.344 75.4 182.984 79.24C179.704 83 175.344 85.52 169.904 86.8C174.064 88.24 177.784 90.68 181.064 94.12C184.424 97.56 187.184 101.8 189.344 106.84C191.504 111.88 192.944 117.6 193.664 124H175.424C174.944 118.32 173.704 113.2 171.704 108.64C169.704 104 166.704 100.32 162.704 97.6C160.304 95.92 157.464 94.6 154.184 93.64C150.984 92.68 147.344 92.2 143.264 92.2V124H126.344ZM143.264 78.52H157.184C161.584 78.52 164.944 77.32 167.264 74.92C169.584 72.52 170.744 69.56 170.744 66.04C170.744 62.44 169.544 59.52 167.144 57.28C164.824 55.04 161.504 53.92 157.184 53.92H143.264V78.52ZM243.991 124.84C238.071 124.84 232.511 123.8 227.311 121.72C222.111 119.64 217.551 116.68 213.631 112.84C209.711 109 206.631 104.48 204.391 99.28C202.151 94.08 201.031 88.32 201.031 82C201.031 75.76 202.151 70.04 204.391 64.84C206.631 59.64 209.711 55.16 213.631 51.4C217.551 47.56 222.111 44.6 227.311 42.52C232.511 40.44 238.071 39.4 243.991 39.4C249.911 39.4 255.471 40.44 260.671 42.52C265.871 44.6 270.391 47.56 274.231 51.4C278.151 55.16 281.231 59.64 283.471 64.84C285.711 70.04 286.831 75.76 286.831 82C286.831 88.32 285.711 94.08 283.471 99.28C281.231 104.48 278.151 109 274.231 112.84C270.391 116.68 265.871 119.64 260.671 121.72C255.471 123.8 249.911 124.84 243.991 124.84ZM243.871 109.6C248.991 109.6 253.431 108.48 257.191 106.24C261.031 104 264.031 100.8 266.191 96.64C268.351 92.48 269.431 87.6 269.431 82C269.431 76.4 268.351 71.56 266.191 67.48C264.031 63.32 261.031 60.12 257.191 57.88C253.431 55.64 248.991 54.52 243.871 54.52C238.911 54.52 234.511 55.64 230.671 57.88C226.831 60.12 223.831 63.32 221.671 67.48C219.511 71.56 218.431 76.4 218.431 82C218.431 87.6 219.511 92.48 221.671 96.64C223.831 100.8 226.831 104 230.671 106.24C234.511 108.48 238.911 109.6 243.871 109.6ZM292.066 40.24H310.186L327.106 114.64H322.546L341.866 40.24H360.706L379.186 114.76H374.386L391.546 40.24H409.786L386.386 124H366.466L349.186 58.48H352.546L334.546 124H314.626L292.066 40.24ZM417.033 40.24H478.593V53.92H456.273V124H439.353V53.92H417.033V40.24ZM491.45 40.24H508.37V124H491.45V40.24ZM544.13 40.24H561.05V124H544.13V40.24ZM505.97 74.68H547.13V88.36H505.97V74.68Z" fill="#1E4D3A"/>
<path d="M658.388 78.0784C659.57 78.084 660.254 79.8591 661.183 80.8329C661.811 81.4896 662.36 82.2188 662.942 82.9144V82.9255C662.94 82.9275 662.939 82.9295 662.937 82.9316C662.939 82.9313 662.94 82.9312 662.942 82.931V82.9255C666.812 87.2883 670.705 91.6346 674.552 96.0197C682.254 104.801 689.938 113.605 697.622 122.403C697.986 122.82 698.328 123.254 698.681 123.683C698.305 124.111 697.874 123.916 697.505 123.916C685.978 123.933 674.452 123.928 662.925 123.961C661.923 123.961 661.245 123.688 660.59 122.909C656.899 118.524 653.152 114.184 649.421 109.832C649.419 109.827 649.417 109.823 649.415 109.819C646.78 106.828 644.145 103.843 641.509 100.852C641.507 100.853 641.504 100.854 641.502 100.855H641.508C639.312 103.115 637.649 105.791 635.75 108.279C632.076 113.076 628.458 117.918 624.856 122.77C624.224 123.622 623.574 123.989 622.465 123.983C611.851 123.939 601.238 123.939 590.63 124C589.336 124.006 589.045 123.666 589.05 122.414C589.106 113.237 589.09 104.061 589.062 94.8898C589.062 93.9439 589.269 93.3039 590.131 92.7697C596.589 88.7964 603.013 84.773 609.454 80.7774C609.824 80.5493 610.21 80.0429 610.653 80.2932C611.09 80.5381 610.815 81.1225 610.815 81.5454C610.832 89.659 610.832 97.767 610.832 105.881V107.522C612.815 106.304 614.573 105.235 616.321 104.144C628.889 96.3202 641.457 88.4904 654.025 80.6662C654.322 80.4826 654.647 80.3434 654.961 80.182C654.964 80.1832 654.968 80.1838 654.972 80.1849C654.972 80.1801 654.972 80.1755 654.972 80.1709C656.109 79.4197 657.252 78.0728 658.388 78.0784Z" fill="#1E4D3A"/>
<path d="M697.65 28C698.731 28 699.006 28.2783 699 29.3411C698.95 39.5304 698.944 49.7198 698.944 59.9091C698.944 60.6937 698.877 61.3003 698.065 61.8067C691.237 66.0527 684.454 70.3544 677.65 74.6338C677.414 74.784 677.19 75.0678 676.725 74.8731V48.1503C673.701 50.0424 670.873 51.8121 668.044 53.5873C661.536 57.6664 655.034 61.7454 648.525 65.8244L643.462 69.0196C638.4 72.2156 633.339 75.4114 628.256 78.5792C626.985 79.3694 625.881 80.4823 624.347 80.8274L624.341 80.8219C624.344 80.8183 624.346 80.8147 624.349 80.8111C624.346 80.8128 624.344 80.8147 624.341 80.8164V80.8219C621.675 78.4568 619.547 75.6186 617.211 72.9586C608.183 62.697 599.199 52.4021 590.199 42.1127C589.84 41.7064 589.521 41.2667 589 40.6101H590.546C601.921 40.599 613.302 40.6101 624.677 40.5433C625.937 40.5377 626.71 40.9662 627.5 41.8954C631.706 46.8537 635.996 51.7399 640.208 56.6982C640.925 57.5384 641.25 57.4104 641.838 56.6035C648.525 47.466 655.258 38.3619 661.923 29.2133C662.567 28.3285 663.205 28.0055 664.286 28.011C675.409 28.05 686.527 28.0445 697.65 28Z" fill="#1E4D3A"/>
</svg>
