<svg width="3635" height="1040" viewBox="0 0 3635 1040" fill="none" xmlns="http://www.w3.org/2000/svg">
<rect width="3635" height="1040" fill="#F4F1EC"/>
<path d="M510 783.2H457V818H504V840.2H457V877.2H510V900H428.8V760.4H510V783.2ZM921.045 901.4C911.445 901.4 902.845 899.667 895.245 896.2C887.645 892.733 881.445 887.933 876.645 881.8C871.845 875.667 868.779 868.467 867.445 860.2L896.045 854.4C897.512 861.733 900.379 867.467 904.645 871.6C908.912 875.733 914.112 877.8 920.245 877.8C927.179 877.8 932.512 876.333 936.245 873.4C939.979 870.333 941.845 866.267 941.845 861.2C941.845 857.067 940.512 853.733 937.845 851.2C935.312 848.667 931.845 846.533 927.445 844.8C923.179 843.067 918.512 841.533 913.445 840.2C908.379 838.733 903.245 837.133 898.045 835.4C892.979 833.533 888.312 831.133 884.045 828.2C879.779 825.267 876.312 821.533 873.645 817C871.112 812.467 869.845 806.667 869.845 799.6C869.845 791.067 871.912 783.8 876.045 777.8C880.179 771.667 885.912 767 893.245 763.8C900.712 760.6 909.312 759 919.045 759C927.579 759 935.312 760.533 942.245 763.6C949.312 766.667 955.112 770.933 959.645 776.4C964.179 781.733 966.912 787.867 967.845 794.8L939.645 802C938.445 795.733 935.912 790.867 932.045 787.4C928.312 783.933 923.645 782.2 918.045 782.2C914.445 782.2 911.112 782.8 908.045 784C905.112 785.2 902.779 787 901.045 789.4C899.312 791.8 898.445 794.8 898.445 798.4C898.445 802.4 899.779 805.667 902.445 808.2C905.112 810.6 908.579 812.667 912.845 814.4C917.112 816 921.779 817.533 926.845 819C932.045 820.333 937.179 821.933 942.245 823.8C947.445 825.667 952.179 828.067 956.445 831C960.845 833.933 964.312 837.733 966.845 842.4C969.512 846.933 970.845 852.667 970.845 859.6C970.845 866.933 968.779 873.8 964.645 880.2C960.645 886.6 954.912 891.733 947.445 895.6C939.979 899.467 931.179 901.4 921.045 901.4ZM1323.67 760.4H1426.27V783.2H1389.07V900H1360.87V783.2H1323.67V760.4ZM1841.47 760.4L1891.87 900H1862.07L1819.07 775.2H1831.07L1788.07 900H1758.47L1808.87 760.4H1841.47ZM1787.07 851H1861.07L1868.27 873.4H1779.87L1787.07 851ZM2223.8 760.4H2326.4V783.2H2289.2V900H2261V783.2H2223.8V760.4ZM2763.83 783.2H2710.83V818H2757.83V840.2H2710.83V877.2H2763.83V900H2682.63V760.4H2763.83V783.2ZM3174.87 901.4C3165.27 901.4 3156.67 899.667 3149.07 896.2C3141.47 892.733 3135.27 887.933 3130.47 881.8C3125.67 875.667 3122.61 868.467 3121.27 860.2L3149.87 854.4C3151.34 861.733 3154.21 867.467 3158.47 871.6C3162.74 875.733 3167.94 877.8 3174.07 877.8C3181.01 877.8 3186.34 876.333 3190.07 873.4C3193.81 870.333 3195.67 866.267 3195.67 861.2C3195.67 857.067 3194.34 853.733 3191.67 851.2C3189.14 848.667 3185.67 846.533 3181.27 844.8C3177.01 843.067 3172.34 841.533 3167.27 840.2C3162.21 838.733 3157.07 837.133 3151.87 835.4C3146.81 833.533 3142.14 831.133 3137.87 828.2C3133.61 825.267 3130.14 821.533 3127.47 817C3124.94 812.467 3123.67 806.667 3123.67 799.6C3123.67 791.067 3125.74 783.8 3129.87 777.8C3134.01 771.667 3139.74 767 3147.07 763.8C3154.54 760.6 3163.14 759 3172.87 759C3181.41 759 3189.14 760.533 3196.07 763.6C3203.14 766.667 3208.94 770.933 3213.47 776.4C3218.01 781.733 3220.74 787.867 3221.67 794.8L3193.47 802C3192.27 795.733 3189.74 790.867 3185.87 787.4C3182.14 783.933 3177.47 782.2 3171.87 782.2C3168.27 782.2 3164.94 782.8 3161.87 784C3158.94 785.2 3156.61 787 3154.87 789.4C3153.14 791.8 3152.27 794.8 3152.27 798.4C3152.27 802.4 3153.61 805.667 3156.27 808.2C3158.94 810.6 3162.41 812.667 3166.67 814.4C3170.94 816 3175.61 817.533 3180.67 819C3185.87 820.333 3191.01 821.933 3196.07 823.8C3201.27 825.667 3206.01 828.067 3210.27 831C3214.67 833.933 3218.14 837.733 3220.67 842.4C3223.34 846.933 3224.67 852.667 3224.67 859.6C3224.67 866.933 3222.61 873.8 3218.47 880.2C3214.47 886.6 3208.74 891.733 3201.27 895.6C3193.81 899.467 3185.01 901.4 3174.87 901.4Z" fill="#1E4D3A"/>
<path d="M464 346.4C460 334.8 454.6 324.6 447.8 315.8C441.4 306.6 433.6 298.8 424.4 292.4C415.6 286 405.6 281.2 394.4 278C383.6 274.4 371.6 272.6 358.4 272.6C334 272.6 312.2 278.4 293 290C274.2 301.6 259.4 317.6 248.6 338C238.2 358.4 233 382.4 233 410C233 438.4 238.2 463 248.6 483.8C259.4 504.6 274.6 520.8 294.2 532.4C314.2 544 337.6 549.8 364.4 549.8C380 549.8 394.4 546.8 407.6 540.8C420.8 534.8 432.4 527 442.4 517.4C452.8 507.8 461 497 467 485C473.4 473 477.8 461.2 480.2 449.6H343.4V383H565.4V620H491V513.8L497 510.8C496.2 517.6 493.8 525.8 489.8 535.4C485.8 545 480 555 472.4 565.4C464.8 575.4 455.2 585 443.6 594.2C432.4 603 419.2 610.2 404 615.8C388.8 621.4 371.6 624.2 352.4 624.2C324.4 624.2 298 619 273.2 608.6C248.4 598.2 226.4 583.6 207.2 564.8C188.4 545.6 173.4 523 162.2 497C151.4 470.6 146 441.6 146 410C146 378.4 151.4 349.6 162.2 323.6C173.4 297.6 188.6 275.2 207.8 256.4C227.4 237.2 250 222.6 275.6 212.6C301.6 202.2 329.6 197 359.6 197C404.4 197 443.4 207.2 476.6 227.6C509.8 248 533.4 277.6 547.4 316.4L464 346.4ZM631.719 620V201.2H789.519C822.319 201.2 849.919 206.6 872.319 217.4C894.719 228.2 911.519 243.2 922.719 262.4C934.319 281.2 940.119 302.8 940.119 327.2C940.119 354 931.719 377 914.919 396.2C898.519 415 876.719 427.6 849.519 434C870.319 441.2 888.919 453.4 905.319 470.6C922.119 487.8 935.919 509 946.719 534.2C957.519 559.4 964.719 588 968.319 620H877.119C874.719 591.6 868.519 566 858.519 543.2C848.519 520 833.519 501.6 813.519 488C801.519 479.6 787.319 473 770.919 468.2C754.919 463.4 736.719 461 716.319 461V620H631.719ZM716.319 392.6H785.919C807.919 392.6 824.719 386.6 836.319 374.6C847.919 362.6 853.719 347.8 853.719 330.2C853.719 312.2 847.719 297.6 835.719 286.4C824.119 275.2 807.519 269.6 785.919 269.6H716.319V392.6ZM1219.95 624.2C1190.35 624.2 1162.55 619 1136.55 608.6C1110.55 598.2 1087.75 583.4 1068.15 564.2C1048.55 545 1033.15 522.4 1021.95 496.4C1010.75 470.4 1005.15 441.6 1005.15 410C1005.15 378.8 1010.75 350.2 1021.95 324.2C1033.15 298.2 1048.55 275.8 1068.15 257C1087.75 237.8 1110.55 223 1136.55 212.6C1162.55 202.2 1190.35 197 1219.95 197C1249.55 197 1277.35 202.2 1303.35 212.6C1329.35 223 1351.95 237.8 1371.15 257C1390.75 275.8 1406.15 298.2 1417.35 324.2C1428.55 350.2 1434.15 378.8 1434.15 410C1434.15 441.6 1428.55 470.4 1417.35 496.4C1406.15 522.4 1390.75 545 1371.15 564.2C1351.95 583.4 1329.35 598.2 1303.35 608.6C1277.35 619 1249.55 624.2 1219.95 624.2ZM1219.35 548C1244.95 548 1267.15 542.4 1285.95 531.2C1305.15 520 1320.15 504 1330.95 483.2C1341.75 462.4 1347.15 438 1347.15 410C1347.15 382 1341.75 357.8 1330.95 337.4C1320.15 316.6 1305.15 300.6 1285.95 289.4C1267.15 278.2 1244.95 272.6 1219.35 272.6C1194.55 272.6 1172.55 278.2 1153.35 289.4C1134.15 300.6 1119.15 316.6 1108.35 337.4C1097.55 357.8 1092.15 382 1092.15 410C1092.15 438 1097.55 462.4 1108.35 483.2C1119.15 504 1134.15 520 1153.35 531.2C1172.55 542.4 1194.55 548 1219.35 548ZM1460.33 201.2H1550.93L1635.53 573.2H1612.73L1709.33 201.2H1803.53L1895.93 573.8H1871.93L1957.73 201.2H2048.93L1931.93 620H1832.33L1745.93 292.4H1762.73L1672.73 620H1573.13L1460.33 201.2ZM2085.16 201.2H2392.96V269.6H2281.36V620H2196.76V269.6H2085.16V201.2ZM2457.25 201.2H2541.85V620H2457.25V201.2ZM2720.65 201.2H2805.25V620H2720.65V201.2ZM2529.85 373.4H2735.65V441.8H2529.85V373.4Z" fill="#1E4D3A"/>
<path d="M3291.94 390.392C3297.85 390.42 3301.27 399.295 3305.92 404.165C3309.05 407.448 3311.8 411.094 3314.71 414.572V414.627C3314.7 414.637 3314.69 414.648 3314.69 414.658C3314.69 414.657 3314.7 414.656 3314.71 414.655V414.627C3334.06 436.441 3353.52 458.173 3372.76 480.099C3411.27 524.005 3449.69 568.023 3488.11 612.013C3489.93 614.1 3491.64 616.271 3493.4 618.414C3491.53 620.556 3489.37 619.582 3487.52 619.581C3429.89 619.665 3372.26 619.638 3314.63 619.805C3309.61 619.805 3306.22 618.441 3302.95 614.546C3284.49 592.621 3265.76 570.918 3247.11 549.159C3247.1 549.137 3247.09 549.115 3247.08 549.094C3233.9 534.14 3220.72 519.214 3207.55 504.26C3207.53 504.265 3207.52 504.272 3207.51 504.277H3207.54C3196.56 515.574 3188.24 528.957 3178.75 541.395C3160.38 565.379 3142.29 589.588 3124.28 613.85C3121.12 618.108 3117.87 619.943 3112.32 619.915C3059.26 619.693 3006.19 619.694 2953.15 620C2946.68 620.027 2945.22 618.33 2945.25 612.07C2945.53 566.187 2945.45 520.304 2945.31 474.449C2945.31 469.719 2946.34 466.52 2950.66 463.848C2982.95 443.982 3015.07 423.865 3047.27 403.887C3049.12 402.746 3051.05 400.214 3053.26 401.466C3055.45 402.69 3054.08 405.613 3054.08 407.727C3054.16 448.295 3054.16 488.835 3054.16 529.403V537.611C3064.07 531.518 3072.87 526.176 3081.6 520.722C3144.44 481.601 3207.29 442.452 3270.13 403.331C3271.61 402.413 3273.24 401.717 3274.8 400.91C3274.82 400.916 3274.84 400.919 3274.86 400.924C3274.86 400.901 3274.86 400.877 3274.86 400.855C3280.54 397.098 3286.26 390.364 3291.94 390.392Z" fill="#1E4D3A"/>
<path d="M3488.25 140C3493.66 140 3495.03 141.391 3495 146.705C3494.75 197.652 3494.72 248.599 3494.72 299.545C3494.72 303.468 3494.38 306.501 3490.32 309.033C3456.19 330.263 3422.27 351.772 3388.25 373.169C3387.07 373.92 3385.95 375.339 3383.63 374.365V240.752C3368.51 250.212 3354.36 259.061 3340.22 267.937C3307.68 288.332 3275.17 308.727 3242.63 329.122L3217.31 345.098C3192 361.078 3166.69 377.057 3141.28 392.896C3134.92 396.847 3129.41 402.412 3121.73 404.137L3121.71 404.109C3121.72 404.092 3121.73 404.073 3121.74 404.056C3121.73 404.064 3121.72 404.074 3121.71 404.082V404.109C3108.38 392.284 3097.73 378.093 3086.06 364.793C3040.91 313.485 2996 262.011 2950.99 210.563C2949.2 208.532 2947.6 206.334 2945 203.05H2952.73C3009.61 202.995 3066.51 203.05 3123.39 202.716C3129.69 202.689 3133.55 204.831 3137.5 209.477C3158.53 234.269 3179.98 258.7 3201.04 283.491C3204.63 287.692 3206.25 287.052 3209.19 283.018C3242.63 237.33 3276.29 191.81 3309.61 146.066C3312.83 141.642 3316.03 140.027 3321.43 140.055C3377.05 140.25 3432.63 140.223 3488.25 140Z" fill="#1E4D3A"/>
</svg>
