<svg width="1440" height="1440" viewBox="0 0 1440 1440" fill="none" xmlns="http://www.w3.org/2000/svg">
<rect width="1440" height="1440" fill="#F4F1EC"/>
<path d="M908.359 747.279C923.828 747.353 932.774 770.65 944.945 783.432C953.157 792.051 960.343 801.622 967.968 810.752V810.897C967.947 810.923 967.924 810.95 967.903 810.977C967.924 810.974 967.947 810.972 967.968 810.969V810.897C1018.63 868.159 1069.59 925.205 1119.96 982.759C1220.77 1098.01 1321.37 1213.56 1421.96 1329.03C1426.73 1334.51 1431.2 1340.21 1435.82 1345.84C1430.91 1351.46 1425.26 1348.9 1420.42 1348.9C1269.53 1349.12 1118.64 1349.05 967.746 1349.49C954.623 1349.49 945.75 1345.91 937.172 1335.68C888.855 1278.13 839.803 1221.16 790.972 1164.04C790.943 1163.99 790.916 1163.93 790.888 1163.87C756.39 1124.62 721.894 1085.44 687.397 1046.18C687.364 1046.2 687.331 1046.21 687.297 1046.23H687.374C658.633 1075.88 636.855 1111.01 612 1143.66C563.903 1206.62 516.538 1270.17 469.394 1333.86C461.109 1345.03 452.602 1349.85 438.085 1349.78C299.144 1349.19 160.203 1349.2 21.3357 1350C4.39964 1350.07 0.585195 1345.62 0.65825 1329.18C1.39145 1208.74 1.1741 1088.3 0.807505 967.929C0.807727 955.513 3.51986 947.114 14.8106 940.102C99.3478 887.953 183.445 835.146 267.762 782.704C272.601 779.709 277.661 773.063 283.453 776.349C289.172 779.562 285.581 787.233 285.581 792.784C285.801 899.274 285.799 1005.69 285.799 1112.18V1133.73C311.754 1117.73 334.777 1103.71 357.652 1089.4C522.181 986.703 686.711 883.936 851.24 781.244C855.126 778.833 859.381 777.007 863.487 774.888C863.533 774.904 863.582 774.912 863.628 774.927C863.627 774.864 863.639 774.803 863.632 774.744C878.516 764.883 893.475 747.206 908.359 747.279Z" fill="#1E4D3A"/>
<path d="M1422.33 90C1436.48 90.0001 1440.07 93.6521 1440 107.602C1439.34 241.336 1439.26 375.072 1439.26 508.806C1439.26 519.104 1438.39 527.066 1427.76 533.713C1338.38 589.442 1249.59 645.901 1160.5 702.068C1157.42 704.04 1154.49 707.765 1148.41 705.209V354.473C1108.81 379.306 1071.79 402.534 1034.76 425.834C949.564 479.371 864.439 532.908 779.242 586.446L712.954 628.382C646.685 670.329 580.435 712.274 513.898 753.852C497.255 764.223 482.812 778.831 462.723 783.36L462.647 783.287C462.68 783.241 462.712 783.193 462.746 783.146C462.712 783.168 462.68 783.193 462.647 783.215V783.287C427.747 752.246 399.887 714.994 369.313 680.082C251.122 545.398 133.515 410.278 15.6908 275.229C10.9985 269.897 6.81854 264.126 0 255.507H20.2374C169.149 255.361 318.136 255.507 467.048 254.63C483.543 254.558 493.66 260.181 503.998 272.377C559.061 337.455 615.226 401.586 670.363 466.664C679.747 477.692 684 476.012 691.699 465.421C779.242 345.491 867.373 226 954.624 105.924C963.055 94.3111 971.414 90.0718 985.565 90.1449C1131.18 90.6561 1276.72 90.5843 1422.33 90Z" fill="#1E4D3A"/>
</svg>
